<svg xmlns="http://www.w3.org/2000/svg" width="390" height="844" viewBox="0 0 390 844"><defs><linearGradient id="orange" x2="1" y2="1"><stop stop-color="#ff6b00"/><stop offset="1" stop-color="#ffb800"/></linearGradient><linearGradient id="purple" x2="1" y2="1"><stop stop-color="#252344"/><stop offset="1" stop-color="#15131f"/></linearGradient><radialGradient id="glow"><stop stop-color="#7532b3" stop-opacity=".18"/><stop offset="1" stop-color="#0d0d0f" stop-opacity="0"/></radialGradient></defs><style>text{font-family:Segoe UI,Arial,sans-serif}</style><rect width="390" height="844" fill="#0d0d0f"/><ellipse cx="360" cy="230" rx="220" ry="330" fill="url(#glow)"/><text x="28" y="27" fill="#fff" font-size="13" font-weight="600" >9:41</text><rect x="145" y="8" width="100" height="25" rx="20" fill="#000" stroke="none"/><text x="324" y="27" fill="#fff" font-size="13" font-weight="600" >•• ▰</text><text x="24" y="91" fill="#fff" font-size="32" font-weight="750" >Profile</text><rect x="290" y="64" width="76" height="24" rx="12" fill="#122c22" stroke="none"/><text x="328" y="81" fill="#6dd6a0" font-size="9" font-weight="600" text-anchor="middle">● Synced</text><rect x="24" y="151" width="342" height="111" rx="18" fill="url(#purple)" stroke="#33333f"/><rect x="43" y="174" width="55" height="55" rx="28" fill="#4b3041" stroke="none"/><text x="70" y="209" fill="#ffad39" font-size="24" font-weight="700" text-anchor="middle">M</text><text x="115" y="197" fill="#fff" font-size="19" font-weight="650" >Member account</text><text x="115" y="221" fill="#c0c2cd" font-size="11" font-weight="400" >Your profile &amp; preferences</text><rect x="24" y="286" width="342" height="84" rx="18" fill="#191923" stroke="#33333f"/><rect x="40" y="306" width="42" height="42" rx="12" fill="#2d2330" stroke="none"/><text x="52" y="333" fill="#ff9f0a" font-size="23" font-weight="700" >♡</text><text x="96" y="319" fill="#fff" font-size="16" font-weight="650" >Health profile</text><text x="96" y="343" fill="#c0c2cd" font-size="11" font-weight="400" >Your own assessment</text><text x="344" y="333" fill="#c0c2cd" font-size="24" font-weight="400" >›</text><rect x="24" y="381" width="342" height="84" rx="18" fill="#191923" stroke="#33333f"/><rect x="40" y="401" width="42" height="42" rx="12" fill="#2d2330" stroke="none"/><text x="52" y="428" fill="#ff9f0a" font-size="23" font-weight="700" >◉</text><text x="96" y="414" fill="#fff" font-size="16" font-weight="650" >Assigned supplements</text><text x="96" y="438" fill="#c0c2cd" font-size="11" font-weight="400" >Coach-assigned guidance</text><text x="344" y="428" fill="#c0c2cd" font-size="24" font-weight="400" >›</text><rect x="24" y="476" width="342" height="84" rx="18" fill="#191923" stroke="#33333f"/><rect x="40" y="496" width="42" height="42" rx="12" fill="#2d2330" stroke="none"/><text x="52" y="523" fill="#ff9f0a" font-size="23" font-weight="700" >◇</text><text x="96" y="509" fill="#fff" font-size="16" font-weight="650" >Security &amp; devices</text><text x="96" y="533" fill="#c0c2cd" font-size="11" font-weight="400" >Manage your account sessions</text><text x="344" y="523" fill="#c0c2cd" font-size="24" font-weight="400" >›</text><rect x="24" y="571" width="342" height="84" rx="18" fill="#191923" stroke="#33333f"/><rect x="40" y="591" width="42" height="42" rx="12" fill="#2d2330" stroke="none"/><text x="52" y="618" fill="#ff9f0a" font-size="23" font-weight="700" >?</text><text x="96" y="604" fill="#fff" font-size="16" font-weight="650" >Help &amp; support</text><text x="96" y="628" fill="#c0c2cd" font-size="11" font-weight="400" >Get help from your gym</text><text x="344" y="618" fill="#c0c2cd" font-size="24" font-weight="400" >›</text><text x="25" y="735" fill="#8c8c9b" font-size="9" font-weight="600" >ILLUSTRATIVE SCREEN · SAMPLE DATA</text><rect x="0" y="776" width="390" height="68" rx="0" fill="#111116" stroke="#2b2b34"/><text x="39" y="801" fill="#9c9ca9" font-size="19" font-weight="600" text-anchor="middle">⌂</text><text x="39" y="824" fill="#9c9ca9" font-size="9" font-weight="500" text-anchor="middle">Home</text><text x="117" y="801" fill="#9c9ca9" font-size="19" font-weight="600" text-anchor="middle">≡</text><text x="117" y="824" fill="#9c9ca9" font-size="9" font-weight="500" text-anchor="middle">Workouts</text><text x="195" y="801" fill="#9c9ca9" font-size="19" font-weight="600" text-anchor="middle">◉</text><text x="195" y="824" fill="#9c9ca9" font-size="9" font-weight="500" text-anchor="middle">Diet</text><text x="273" y="801" fill="#9c9ca9" font-size="19" font-weight="600" text-anchor="middle">↗</text><text x="273" y="824" fill="#9c9ca9" font-size="9" font-weight="500" text-anchor="middle">Progress</text><text x="351" y="801" fill="#ff9f0a" font-size="19" font-weight="600" text-anchor="middle">◎</text><text x="351" y="824" fill="#ff9f0a" font-size="9" font-weight="500" text-anchor="middle">Profile</text></svg>