<svg xmlns="http://www.w3.org/2000/svg" width="390" height="844" viewBox="0 0 390 844"><defs><linearGradient id="orange" x2="1" y2="1"><stop stop-color="#ff6b00"/><stop offset="1" stop-color="#ffb800"/></linearGradient><linearGradient id="purple" x2="1" y2="1"><stop stop-color="#252344"/><stop offset="1" stop-color="#15131f"/></linearGradient><radialGradient id="glow"><stop stop-color="#7532b3" stop-opacity=".18"/><stop offset="1" stop-color="#0d0d0f" stop-opacity="0"/></radialGradient></defs><style>text{font-family:Segoe UI,Arial,sans-serif}</style><rect width="390" height="844" fill="#0d0d0f"/><ellipse cx="360" cy="230" rx="220" ry="330" fill="url(#glow)"/><text x="28" y="27" fill="#fff" font-size="13" font-weight="600" >9:41</text><rect x="145" y="8" width="100" height="25" rx="20" fill="#000" stroke="none"/><text x="324" y="27" fill="#fff" font-size="13" font-weight="600" >•• ▰</text><text x="24" y="91" fill="#fff" font-size="32" font-weight="750" >Membership</text><rect x="290" y="64" width="76" height="24" rx="12" fill="#122c22" stroke="none"/><text x="328" y="81" fill="#6dd6a0" font-size="9" font-weight="600" text-anchor="middle">● Synced</text><text x="24" y="129" fill="#c0c2cd" font-size="13" font-weight="400" >Access, billing and what comes next.</text><rect x="24" y="155" width="342" height="187" rx="18" fill="url(#purple)" stroke="#33333f"/><text x="43" y="184" fill="#c4b8e4" font-size="10" font-weight="650" >CURRENT PLAN</text><text x="43" y="224" fill="#fff" font-size="24" font-weight="700" >Monthly membership</text><rect x="43" y="244" width="106" height="24" rx="8" fill="#163b2a" stroke="none"/><text x="96" y="260" fill="#81e3b1" font-size="11" font-weight="600" text-anchor="middle">Active access</text><text x="43" y="294" fill="#c0c2cd" font-size="11" font-weight="400" >Membership period</text><text x="43" y="320" fill="#fff" font-size="15" font-weight="600" >01 Oct — 31 Oct · sample</text><rect x="24" y="363" width="342" height="118" rx="18" fill="#191923" stroke="#33333f"/><text x="43" y="396" fill="#aaaab9" font-size="10" font-weight="700" >OUTSTANDING BALANCE</text><text x="43" y="436" fill="#fff" font-size="32" font-weight="700" >₹0.00</text><text x="235" y="435" fill="#81e3b1" font-size="11" font-weight="600" >Fully settled</text><rect x="24" y="503" width="342" height="84" rx="18" fill="#191923" stroke="#33333f"/><rect x="40" y="523" width="42" height="42" rx="12" fill="#2d2330" stroke="none"/><text x="52" y="550" fill="#ff9f0a" font-size="23" font-weight="700" >≡</text><text x="96" y="536" fill="#fff" font-size="16" font-weight="650" >Payment history</text><text x="96" y="560" fill="#c0c2cd" font-size="11" font-weight="400" >Your receipts and invoices</text><text x="344" y="550" fill="#c0c2cd" font-size="24" font-weight="400" >›</text><rect x="24" y="600" width="342" height="84" rx="18" fill="#191923" stroke="#33333f"/><rect x="40" y="620" width="42" height="42" rx="12" fill="#2d2330" stroke="none"/><text x="52" y="647" fill="#ff9f0a" font-size="23" font-weight="700" >↗</text><text x="96" y="633" fill="#fff" font-size="16" font-weight="650" >Need to renew?</text><text x="96" y="657" fill="#c0c2cd" font-size="11" font-weight="400" >Contact your gym’s front desk</text><text x="344" y="647" fill="#c0c2cd" font-size="24" font-weight="400" >›</text><text x="25" y="720" fill="#c0c2cd" font-size="11" font-weight="400" >Paying a balance does not renew your plan.</text><text x="25" y="750" fill="#8c8c9b" font-size="9" font-weight="600" >ILLUSTRATIVE SCREEN · SAMPLE DATA</text><rect x="0" y="776" width="390" height="68" rx="0" fill="#111116" stroke="#2b2b34"/><text x="39" y="801" fill="#ff9f0a" font-size="19" font-weight="600" text-anchor="middle">⌂</text><text x="39" y="824" fill="#ff9f0a" font-size="9" font-weight="500" text-anchor="middle">Home</text><text x="117" y="801" fill="#9c9ca9" font-size="19" font-weight="600" text-anchor="middle">≡</text><text x="117" y="824" fill="#9c9ca9" font-size="9" font-weight="500" text-anchor="middle">Workouts</text><text x="195" y="801" fill="#9c9ca9" font-size="19" font-weight="600" text-anchor="middle">◉</text><text x="195" y="824" fill="#9c9ca9" font-size="9" font-weight="500" text-anchor="middle">Diet</text><text x="273" y="801" fill="#9c9ca9" font-size="19" font-weight="600" text-anchor="middle">↗</text><text x="273" y="824" fill="#9c9ca9" font-size="9" font-weight="500" text-anchor="middle">Progress</text><text x="351" y="801" fill="#9c9ca9" font-size="19" font-weight="600" text-anchor="middle">◎</text><text x="351" y="824" fill="#9c9ca9" font-size="9" font-weight="500" text-anchor="middle">Profile</text></svg>